<?xml version="1.0" encoding="utf-8"?>
<!-- Generator: Adobe Illustrator 14.0.0, SVG Export Plug-In . SVG Version: 6.00 Build 43363)  -->
<!DOCTYPE svg PUBLIC "-//W3C//DTD SVG 1.0//EN" "http://www.w3.org/TR/2001/REC-SVG-20010904/DTD/svg10.dtd">
<svg version="1.0" id="Layer_1" xmlns="http://www.w3.org/2000/svg" xmlns:xlink="http://www.w3.org/1999/xlink" x="0px" y="0px"
	 width="193px" height="40px" viewBox="0 0 193 40" enable-background="new 0 0 193 40" xml:space="preserve">
<g>
	<path fill="#0D311E" d="M11.008,26.916c-1.716-4.083-1.953-6.155-5.504-6.155H3.61v6.927c0,2.426,0.267,3.106,1.184,3.374v0.385H0
		v-0.385c0.917-0.268,1.184-0.948,1.184-3.374V14.489c0-2.427-0.267-3.107-1.184-3.374V10.73h5.83c6.008,0,7.782,1.983,7.782,4.617
		c0,2.78-2.011,4.882-5.859,5.327c3.64,0.473,4.202,2.277,5.623,5.918c1.421,3.552,2.012,4.526,3.019,4.526
		c0.177,0,0.326,0,0.474-0.028v0.356c-0.443,0.146-1.213,0.206-1.805,0.206C12.784,31.652,12.311,29.994,11.008,26.916z
		 M6.096,20.318c3.403,0,5.001-1.776,5.001-4.292c0-2.633-1.716-4.853-6.096-4.853c-0.444,0-0.917,0.03-1.392,0.06v9.085H6.096z"/>
	<path fill="#0D311E" d="M17.045,24.252c0-4.615,3.699-7.811,7.754-7.811c3.668,0,7.724,2.25,7.724,7.517
		c0,5.062-4.232,7.783-7.724,7.783C21.041,31.741,17.045,29.404,17.045,24.252z M25.688,31.118c3.166,0,4.587-2.546,4.587-5.414
		c0-3.817-2.694-8.908-6.57-8.701c-3.019,0.119-4.38,2.605-4.38,5.563C19.325,26.325,21.75,31.118,25.688,31.118z"/>
	<path fill="#0D311E" d="M34.565,24.252c0-4.615,3.698-7.811,7.753-7.811c3.669,0,7.724,2.25,7.724,7.517
		c0,5.062-4.232,7.783-7.724,7.783C38.561,31.741,34.565,29.404,34.565,24.252z M43.206,31.118c3.167,0,4.587-2.546,4.587-5.414
		c0-3.817-2.693-8.908-6.569-8.701c-3.019,0.119-4.38,2.605-4.38,5.563C36.844,26.325,39.271,31.118,43.206,31.118z"/>
	<path fill="#0D311E" d="M53.83,27.51V17.063h-1.894v-0.415l3.788-3.64h0.414v3.64h4.498l-0.148,0.415h-4.35V27.51
		c0,2.01,0.829,2.783,2.101,2.783c0.829,0,1.864-0.385,2.841-1.54l0.267,0.267c-1.273,1.448-2.782,2.722-4.528,2.722
		C54.956,31.741,53.83,30.589,53.83,27.51z"/>
	<path fill="#0D311E" d="M62.708,30.35l-0.268-3.58l0.268-0.061c1.242,2.811,3.344,4.499,6.036,4.53
		c1.835,0,3.197-1.096,3.197-2.753c0-2.133-2.072-2.812-4.351-3.551c-2.812-0.889-4.824-1.657-4.824-4.352
		c0-2.337,1.954-4.143,5.386-4.143c1.924,0,3.67,0.416,4.587,0.8l0.118,3.019l-0.296,0.059c-0.946-2.131-2.84-3.493-4.941-3.493
		c-2.013,0-3.315,0.978-3.315,2.487c0,1.864,1.895,2.633,4.232,3.403c2.25,0.74,4.972,1.421,4.972,4.381
		c0,2.485-1.864,4.588-5.416,4.616C65.727,31.712,63.686,31,62.708,30.35z"/>
</g>
<g>
	<path fill="#0D311E" d="M84.583,27.72V17.207h-1.907v-0.419l3.813-3.663h0.419v3.663h4.528l-0.151,0.419h-4.377V27.72
		c0,2.028,0.833,2.804,2.115,2.804c0.833,0,1.876-0.389,2.86-1.55l0.268,0.267c-1.281,1.463-2.802,2.739-4.558,2.739
		C85.716,31.979,84.583,30.821,84.583,27.72z"/>
	<path fill="#0D311E" d="M92.776,24.445c0-4.648,3.724-7.865,7.804-7.865c3.696,0,7.779,2.265,7.779,7.567
		c0,5.093-4.264,7.832-7.779,7.832C96.798,31.979,92.776,29.627,92.776,24.445z M101.474,31.356c3.19,0,4.619-2.562,4.619-5.451
		c0-3.843-2.712-8.968-6.615-8.759c-3.035,0.119-4.409,2.622-4.409,5.602C95.068,26.529,97.514,31.356,101.474,31.356z"/>
	<path fill="#0D311E" d="M128.498,27.128c-1.726-4.113-1.969-6.2-5.542-6.2h-1.907v6.974c0,2.441,0.268,3.129,1.191,3.396v0.387
		h-4.822v-0.387c0.921-0.268,1.19-0.955,1.19-3.396V14.613c0-2.443-0.27-3.127-1.19-3.395v-0.388h5.864
		c6.051,0,7.838,1.996,7.838,4.649c0,2.799-2.028,4.913-5.9,5.362c3.667,0.476,4.23,2.292,5.661,5.957
		c1.433,3.578,2.026,4.559,3.038,4.559c0.18,0,0.328,0,0.479-0.029v0.358c-0.445,0.149-1.224,0.21-1.817,0.21
		C130.286,31.896,129.808,30.223,128.498,27.128z M123.554,20.483c3.425,0,5.033-1.788,5.033-4.319c0-2.652-1.729-4.887-6.137-4.887
		c-0.445,0-0.924,0.03-1.401,0.059v9.147H123.554z"/>
	<path fill="#0D311E" d="M134.575,24.445c0-4.648,3.726-7.865,7.808-7.865c3.695,0,7.777,2.265,7.777,7.567
		c0,5.093-4.265,7.832-7.777,7.832C138.599,31.979,134.575,29.627,134.575,24.445z M143.274,31.356c3.189,0,4.619-2.562,4.619-5.451
		c0-3.843-2.712-8.968-6.613-8.759c-3.04,0.119-4.409,2.622-4.409,5.602C136.871,26.529,139.313,31.356,143.274,31.356z"/>
	<path fill="#0D311E" d="M152.752,30.582l-0.268-3.604l0.268-0.062c1.25,2.832,3.365,4.53,6.075,4.559c1.849,0,3.22-1.099,3.22-2.77
		c0-2.145-2.085-2.832-4.381-3.575c-2.829-0.894-4.852-1.668-4.852-4.379c0-2.353,1.962-4.171,5.419-4.171
		c1.936,0,3.693,0.417,4.615,0.805l0.122,3.039l-0.298,0.06c-0.954-2.146-2.859-3.517-4.975-3.517c-2.029,0-3.335,0.983-3.335,2.502
		c0,1.877,1.903,2.652,4.255,3.426c2.265,0.745,5.006,1.429,5.006,4.409c0,2.503-1.875,4.617-5.45,4.646
		C155.789,31.951,153.734,31.237,152.752,30.582z"/>
	<path fill="#0D311E" d="M165.771,24.685c0-4.857,3.664-8.104,7.834-8.104c3.756,0,5.931,2.443,6.022,5.272h-11.649
		c-0.06,0.446-0.091,0.896-0.091,1.37c0,4.082,2.533,6.881,6.405,6.881c2.293,0,3.934-1.041,5.304-2.591l0.268,0.269
		c-1.521,2.086-3.843,4.198-7.029,4.198C169.555,31.979,165.771,29.599,165.771,24.685z M177.238,21.466
		c-0.296-1.997-1.905-4.349-4.613-4.349c-2.535-0.03-4.084,1.847-4.562,4.349H177.238z"/>
	<path fill="#0D311E" d="M182.01,30.582l-0.269-3.604l0.269-0.062c1.249,2.832,3.365,4.53,6.074,4.559
		c1.849,0,3.219-1.099,3.219-2.77c0-2.145-2.084-2.832-4.378-3.575c-2.829-0.894-4.857-1.668-4.857-4.379
		c0-2.353,1.967-4.171,5.424-4.171c1.935,0,3.693,0.417,4.619,0.805l0.114,3.039l-0.295,0.06c-0.954-2.146-2.861-3.517-4.976-3.517
		c-2.025,0-3.338,0.983-3.338,2.502c0,1.877,1.907,2.652,4.261,3.426c2.268,0.745,5.006,1.429,5.006,4.409
		c0,2.503-1.876,4.617-5.452,4.646C185.046,31.951,182.992,31.237,182.01,30.582z"/>
</g>
</svg>
